<mxfile host="app.diagrams.net" modified="2022-01-11T11:45:43.010Z" agent="5.0 (Macintosh; Intel Mac OS X 10_15_7) AppleWebKit/537.36 (KHTML, like Gecko) Chrome/97.0.4692.71 Safari/537.36" etag="hh0DvtZH4cSQ0-1zprdn" version="16.1.2" type="github">
  <diagram id="MFKVSlRv5THOJj1615T8" name="Page-1">
    <mxGraphModel dx="2032" dy="780" grid="1" gridSize="10" guides="1" tooltips="1" connect="1" arrows="1" fold="1" page="1" pageScale="1" pageWidth="827" pageHeight="1169" math="0" shadow="0">
      <root>
        <mxCell id="0" />
        <mxCell id="1" parent="0" />
        <mxCell id="R0l-vmK1IEXM8kcUDW_q-3" style="edgeStyle=orthogonalEdgeStyle;rounded=0;orthogonalLoop=1;jettySize=auto;html=1;exitX=1;exitY=0.5;exitDx=0;exitDy=0;entryX=0;entryY=0.5;entryDx=0;entryDy=0;endArrow=none;endFill=0;" edge="1" parent="1" source="R0l-vmK1IEXM8kcUDW_q-1" target="R0l-vmK1IEXM8kcUDW_q-2">
          <mxGeometry relative="1" as="geometry" />
        </mxCell>
        <mxCell id="R0l-vmK1IEXM8kcUDW_q-1" value="A" style="ellipse;whiteSpace=wrap;html=1;aspect=fixed;" vertex="1" parent="1">
          <mxGeometry x="120" y="270" width="80" height="80" as="geometry" />
        </mxCell>
        <mxCell id="R0l-vmK1IEXM8kcUDW_q-2" value="B" style="ellipse;whiteSpace=wrap;html=1;aspect=fixed;" vertex="1" parent="1">
          <mxGeometry x="300" y="270" width="80" height="80" as="geometry" />
        </mxCell>
        <mxCell id="R0l-vmK1IEXM8kcUDW_q-4" style="edgeStyle=orthogonalEdgeStyle;rounded=0;orthogonalLoop=1;jettySize=auto;html=1;exitX=1;exitY=0.5;exitDx=0;exitDy=0;entryX=0;entryY=0.5;entryDx=0;entryDy=0;endArrow=classic;endFill=1;" edge="1" parent="1" source="R0l-vmK1IEXM8kcUDW_q-5" target="R0l-vmK1IEXM8kcUDW_q-6">
          <mxGeometry relative="1" as="geometry" />
        </mxCell>
        <mxCell id="R0l-vmK1IEXM8kcUDW_q-7" value="关系" style="edgeLabel;html=1;align=center;verticalAlign=middle;resizable=0;points=[];" vertex="1" connectable="0" parent="R0l-vmK1IEXM8kcUDW_q-4">
          <mxGeometry x="-0.0262" y="-3" relative="1" as="geometry">
            <mxPoint y="-13" as="offset" />
          </mxGeometry>
        </mxCell>
        <mxCell id="R0l-vmK1IEXM8kcUDW_q-5" value="A" style="ellipse;whiteSpace=wrap;html=1;aspect=fixed;" vertex="1" parent="1">
          <mxGeometry x="120" y="400" width="80" height="80" as="geometry" />
        </mxCell>
        <mxCell id="R0l-vmK1IEXM8kcUDW_q-6" value="B" style="ellipse;whiteSpace=wrap;html=1;aspect=fixed;" vertex="1" parent="1">
          <mxGeometry x="300" y="400" width="80" height="80" as="geometry" />
        </mxCell>
        <mxCell id="R0l-vmK1IEXM8kcUDW_q-8" style="edgeStyle=orthogonalEdgeStyle;rounded=0;orthogonalLoop=1;jettySize=auto;html=1;exitX=1;exitY=0.5;exitDx=0;exitDy=0;entryX=0;entryY=0.5;entryDx=0;entryDy=0;endArrow=classic;endFill=1;curved=1;" edge="1" parent="1" source="R0l-vmK1IEXM8kcUDW_q-10" target="R0l-vmK1IEXM8kcUDW_q-11">
          <mxGeometry relative="1" as="geometry">
            <Array as="points">
              <mxPoint x="200" y="552" />
              <mxPoint x="300" y="552" />
            </Array>
          </mxGeometry>
        </mxCell>
        <mxCell id="R0l-vmK1IEXM8kcUDW_q-9" value="关系1" style="edgeLabel;html=1;align=center;verticalAlign=middle;resizable=0;points=[];" vertex="1" connectable="0" parent="R0l-vmK1IEXM8kcUDW_q-8">
          <mxGeometry x="-0.0262" y="-3" relative="1" as="geometry">
            <mxPoint x="2" y="-15" as="offset" />
          </mxGeometry>
        </mxCell>
        <mxCell id="R0l-vmK1IEXM8kcUDW_q-13" style="edgeStyle=orthogonalEdgeStyle;curved=1;rounded=0;orthogonalLoop=1;jettySize=auto;html=1;exitX=1;exitY=0.5;exitDx=0;exitDy=0;entryX=0;entryY=0.5;entryDx=0;entryDy=0;endArrow=classic;endFill=1;" edge="1" parent="1" source="R0l-vmK1IEXM8kcUDW_q-10" target="R0l-vmK1IEXM8kcUDW_q-11">
          <mxGeometry relative="1" as="geometry" />
        </mxCell>
        <mxCell id="R0l-vmK1IEXM8kcUDW_q-15" value="关系2" style="edgeLabel;html=1;align=center;verticalAlign=middle;resizable=0;points=[];" vertex="1" connectable="0" parent="R0l-vmK1IEXM8kcUDW_q-13">
          <mxGeometry x="-0.0676" y="1" relative="1" as="geometry">
            <mxPoint x="3" y="-9" as="offset" />
          </mxGeometry>
        </mxCell>
        <mxCell id="R0l-vmK1IEXM8kcUDW_q-14" style="edgeStyle=orthogonalEdgeStyle;curved=1;rounded=0;orthogonalLoop=1;jettySize=auto;html=1;exitX=1;exitY=0.5;exitDx=0;exitDy=0;entryX=0;entryY=0.5;entryDx=0;entryDy=0;endArrow=classic;endFill=1;" edge="1" parent="1" source="R0l-vmK1IEXM8kcUDW_q-10" target="R0l-vmK1IEXM8kcUDW_q-11">
          <mxGeometry relative="1" as="geometry">
            <Array as="points">
              <mxPoint x="200" y="608" />
              <mxPoint x="300" y="608" />
            </Array>
          </mxGeometry>
        </mxCell>
        <mxCell id="R0l-vmK1IEXM8kcUDW_q-16" value="关系3" style="edgeLabel;html=1;align=center;verticalAlign=middle;resizable=0;points=[];" vertex="1" connectable="0" parent="R0l-vmK1IEXM8kcUDW_q-14">
          <mxGeometry x="0.0009" relative="1" as="geometry">
            <mxPoint y="-8" as="offset" />
          </mxGeometry>
        </mxCell>
        <mxCell id="R0l-vmK1IEXM8kcUDW_q-10" value="A" style="ellipse;whiteSpace=wrap;html=1;aspect=fixed;" vertex="1" parent="1">
          <mxGeometry x="120" y="540" width="80" height="80" as="geometry" />
        </mxCell>
        <mxCell id="R0l-vmK1IEXM8kcUDW_q-11" value="B" style="ellipse;whiteSpace=wrap;html=1;aspect=fixed;" vertex="1" parent="1">
          <mxGeometry x="300" y="540" width="80" height="80" as="geometry" />
        </mxCell>
      </root>
    </mxGraphModel>
  </diagram>
</mxfile>
